<svg width="238" height="34" viewBox="0 0 238 34" fill="none" xmlns="http://www.w3.org/2000/svg">
<path d="M233.75 0H208.25C207.123 0.0015 206.043 0.571899 205.246 1.586C204.449 2.6 204.001 3.975 204 5.4091V28.5909C204.001 30.025 204.449 31.4 205.246 32.414C206.043 33.4281 207.123 33.9985 208.25 34H233.75C234.877 33.9985 235.957 33.4281 236.754 32.414C237.551 31.4 237.999 30.025 238 28.5909V5.4091C237.999 3.975 237.551 2.6 236.754 1.586C235.957 0.571899 234.877 0.0015 233.75 0ZM232.674 8.9472L221.745 19.7654C221.532 19.9762 221.27 20.0907 221 20.0907C220.73 20.0907 220.468 19.9762 220.255 19.7654L209.326 8.9472C209.198 8.8238 209.09 8.6691 209.009 8.4922C208.928 8.3153 208.875 8.1197 208.854 7.9167C208.833 7.7136 208.844 7.5073 208.886 7.3097C208.928 7.112 209.001 6.927 209.099 6.7653C209.198 6.6036 209.321 6.4686 209.461 6.3679C209.601 6.2673 209.756 6.2031 209.916 6.1791C210.075 6.1551 210.237 6.1718 210.392 6.2281C210.547 6.2845 210.691 6.3794 210.817 6.5073L221 16.5876L231.183 6.5073C231.438 6.2626 231.758 6.1552 232.074 6.2085C232.391 6.2618 232.678 6.4714 232.874 6.792C233.07 7.1126 233.158 7.5185 233.121 7.9218C233.084 8.3251 232.923 8.6935 232.674 8.9472Z" fill="#CC2D43"/>
<path d="M153 0C143.611 0 136 7.611 136 17C136 26.389 143.611 34 153 34C162.389 34 170 26.389 170 17C170 7.611 162.389 0 153 0ZM148.839 24.0461H145.396V12.9678H148.839V24.0461ZM147.096 11.6078C146.009 11.6078 145.306 10.8375 145.306 9.8848C145.306 8.9126 146.03 8.1653 147.14 8.1653C148.251 8.1653 148.931 8.9126 148.952 9.8848C148.952 10.8375 148.251 11.6078 147.096 11.6078ZM161.411 24.0461H157.969V17.9067C157.969 16.4776 157.47 15.5072 156.225 15.5072C155.274 15.5072 154.709 16.1642 154.459 16.7964C154.367 17.0212 154.344 17.34 154.344 17.657V24.0444H150.9V16.5006C150.9 15.1176 150.856 13.9613 150.809 12.966H153.8L153.958 14.5049H154.027C154.48 13.7824 155.591 12.7164 157.448 12.7164C159.713 12.7164 161.411 14.234 161.411 17.4958V24.0461Z" fill="#CC2D43"/>
<path d="M17 0C7.61104 0 0 7.611 0 17C0 26.389 7.61104 34 17 34C26.389 34 34 26.389 34 17C34 7.611 26.389 0 17 0ZM21.0269 11.7477H18.4716C18.1688 11.7477 17.8323 12.1461 17.8323 12.6756V14.5208H21.0286L20.5452 17.1523H17.8323V25.052H14.8166V17.1523H12.0806V14.5208H14.8166V12.9731C14.8166 10.7525 16.3572 8.948 18.4716 8.948H21.0269V11.7477Z" fill="#CC2D43"/>
<path d="M84.9954 11.3309C81.8739 11.3309 79.3265 13.8784 79.3265 17C79.3265 20.1216 81.8739 22.6691 84.9954 22.6691C88.117 22.6691 90.6644 20.1216 90.6644 17C90.6644 13.8784 88.117 11.3309 84.9954 11.3309ZM101.998 17C101.998 14.6524 102.019 12.3261 101.888 9.98277C101.756 7.26087 101.135 4.84527 99.1445 2.85487C97.1499 0.86027 94.7386 0.243671 92.0168 0.111771C89.6693 -0.0200288 87.343 0.00127083 84.9997 0.00127083C82.6521 0.00127083 80.3259 -0.0200288 77.9826 0.111771C75.2608 0.243671 72.8452 0.86457 70.8549 2.85487C68.8603 4.84947 68.2437 7.26087 68.1118 9.98277C67.98 12.3303 68.0013 14.6567 68.0013 17C68.0013 19.3433 67.98 21.6739 68.1118 24.0172C68.2437 26.7391 68.8646 29.1547 70.8549 31.1451C72.8495 33.1397 75.2608 33.7563 77.9826 33.8882C80.3301 34.02 82.6564 33.9987 84.9997 33.9987C87.3472 33.9987 89.6735 34.02 92.0168 33.8882C94.7386 33.7563 97.1542 33.1354 99.1445 31.1451C101.139 29.1505 101.756 26.7391 101.888 24.0172C102.024 21.6739 101.998 19.3476 101.998 17ZM84.9954 25.7226C80.1685 25.7226 76.273 21.827 76.273 17C76.273 12.173 80.1685 8.27737 84.9954 8.27737C89.8224 8.27737 93.7179 12.173 93.7179 17C93.7179 21.827 89.8224 25.7226 84.9954 25.7226ZM94.0751 9.95717C92.9482 9.95717 92.0381 9.04707 92.0381 7.92007C92.0381 6.79307 92.9482 5.88297 94.0751 5.88297C95.2021 5.88297 96.1122 6.79307 96.1122 7.92007C96.1126 8.18767 96.0601 8.45277 95.9579 8.70007C95.8556 8.94737 95.7056 9.17207 95.5163 9.36127C95.3271 9.55057 95.1024 9.70057 94.8551 9.80287C94.6078 9.90507 94.3428 9.95757 94.0751 9.95717Z" fill="#CC2D43"/>
</svg>
