<svg width="34" height="34" viewBox="0 0 34 34" fill="none" xmlns="http://www.w3.org/2000/svg">
<path d="M16.9954 11.3309C13.8739 11.3309 11.3265 13.8784 11.3265 17C11.3265 20.1216 13.8739 22.6691 16.9954 22.6691C20.117 22.6691 22.6644 20.1216 22.6644 17C22.6644 13.8784 20.117 11.3309 16.9954 11.3309ZM33.998 17C33.998 14.6524 34.019 12.3261 33.888 9.98277C33.756 7.26087 33.135 4.84527 31.1445 2.85487C29.1499 0.86027 26.7386 0.243671 24.0168 0.111771C21.6693 -0.0200288 19.343 0.00127083 16.9997 0.00127083C14.6521 0.00127083 12.3259 -0.0200288 9.98257 0.111771C7.26077 0.243671 4.84517 0.86457 2.85487 2.85487C0.86027 4.84947 0.243674 7.26087 0.111774 9.98277C-0.0200256 12.3303 0.00127026 14.6567 0.00127026 17C0.00127026 19.3433 -0.0200256 21.6739 0.111774 24.0172C0.243674 26.7391 0.86457 29.1547 2.85487 31.1451C4.84947 33.1397 7.26077 33.7563 9.98257 33.8882C12.3301 34.02 14.6564 33.9987 16.9997 33.9987C19.3472 33.9987 21.6735 34.02 24.0168 33.8882C26.7386 33.7563 29.1542 33.1354 31.1445 31.1451C33.139 29.1505 33.756 26.7391 33.888 24.0172C34.024 21.6739 33.998 19.3476 33.998 17ZM16.9954 25.7226C12.1685 25.7226 8.27298 21.827 8.27298 17C8.27298 12.173 12.1685 8.27737 16.9954 8.27737C21.8224 8.27737 25.7179 12.173 25.7179 17C25.7179 21.827 21.8224 25.7226 16.9954 25.7226ZM26.0751 9.95717C24.9482 9.95717 24.0381 9.04707 24.0381 7.92007C24.0381 6.79307 24.9482 5.88297 26.0751 5.88297C27.2021 5.88297 28.1122 6.79307 28.1122 7.92007C28.1126 8.18767 28.0601 8.45277 27.9579 8.70007C27.8556 8.94737 27.7056 9.17207 27.5163 9.36127C27.3271 9.55057 27.1024 9.70057 26.8551 9.80287C26.6078 9.90507 26.3428 9.95757 26.0751 9.95717Z" fill="#CC2D43"/>
</svg>
