<svg width="34" height="34" viewBox="0 0 34 34" fill="none" xmlns="http://www.w3.org/2000/svg">
<path d="M29.75 0H4.25C3.123 0.0015 2.043 0.571899 1.246 1.586C0.449002 2.6 0.001 3.975 0 5.4091V28.5909C0.001 30.025 0.449002 31.4 1.246 32.414C2.043 33.4281 3.123 33.9985 4.25 34H29.75C30.877 33.9985 31.957 33.4281 32.754 32.414C33.551 31.4 33.999 30.025 34 28.5909V5.4091C33.999 3.975 33.551 2.6 32.754 1.586C31.957 0.571899 30.877 0.0015 29.75 0ZM28.674 8.9472L17.745 19.7654C17.532 19.9762 17.27 20.0907 17 20.0907C16.73 20.0907 16.468 19.9762 16.255 19.7654L5.32599 8.9472C5.19799 8.8238 5.09 8.6691 5.009 8.4922C4.928 8.3153 4.875 8.1197 4.854 7.9167C4.833 7.7136 4.84399 7.5073 4.88599 7.3097C4.92799 7.112 5.001 6.927 5.099 6.7653C5.198 6.6036 5.321 6.4686 5.461 6.3679C5.601 6.2673 5.75599 6.2031 5.91599 6.1791C6.07499 6.1551 6.237 6.1718 6.392 6.2281C6.547 6.2845 6.69099 6.3794 6.81699 6.5073L17 16.5876L27.183 6.5073C27.438 6.2626 27.758 6.1552 28.074 6.2085C28.391 6.2618 28.678 6.4714 28.874 6.792C29.07 7.1126 29.158 7.5185 29.121 7.9218C29.084 8.3251 28.923 8.6935 28.674 8.9472Z" fill="#CC2D43"/>
</svg>
