<svg id="Layer_1" data-name="Layer 1" xmlns="http://www.w3.org/2000/svg" viewBox="0 0 982.5 919.83"><defs><style>.cls-1{fill:#531a29;}.cls-2{fill:#771136;}.cls-3{fill:#9f1c3b;}.cls-4{fill:#cc2d43;}</style></defs><path class="cls-1" d="M177,680S45.49,524.25,168.6,382a161.17,161.17,0,0,1,73-48.42c52.17-16.52,139-18.78,231,86.91,0,0,107-224.63,263.36-193.47,3.74.74,7.47,1.49,11.24,2.09,26.53,4.26,158.4,34.67,140.4,217.38,0,0-18,143-174,300,0,0-139.14,127.68-189.36,156.46a30.64,30.64,0,0,1-26.36,2c-12.17-4.74-31.52-15.77-54.28-41.45,0,0-28-32,10-31,0,0,98-3,159-95,0,0,63-93,85-91,0,0-35-37-91,21,0,0-82,90-160,58,0,0,45,17,89-64,0,0-40.43,35-119.6-5.6a201.86,201.86,0,0,1-17.63-10.32c-16.6-10.79-79-45-131.22,11.07a66.36,66.36,0,0,0-16.19,30.07c-5.28,22.75-4.13,62.38,39.64,111.78,0,0,142,159,199,188,0,0,24.24,18.46,40,9,4.89-2.94,223.39-156.25,344.25-307.15q7.34-9.15,15.19-17.87c39.6-44.11,219-262.74,88.56-471,0,0-165.54-229-403.86-57.28q-2.5,1.8-5,3.54c-12.06,8.17-78.21,56.71-118.09,162.74,0,0-189-158-345-9C105.5,299.5-77.5,482.5,177,680Z" transform="translate(-41.83 -78.37)"/><path class="cls-1" d="M554,694s45-93,98-70c0,0-28.56,13.62-39.55,24.39-2.22,2.17-4.44,4.34-6.77,6.39C593.13,665.83,560.05,694.4,554,694Z" transform="translate(-41.83 -78.37)"/><path class="cls-2" d="M586,665s24-26,43-34C629,631,609,618,586,665Z" transform="translate(-41.83 -78.37)"/><path class="cls-1" d="M538.5,702.5s31.71-42,42.89-62a1.5,1.5,0,0,0-1.3-2.23C572.43,638.33,548.51,643.28,538.5,702.5Z" transform="translate(-41.83 -78.37)"/><path class="cls-2" d="M551.43,674.88a1.05,1.05,0,0,0,1.87.87c6.33-8.51,21.2-28.68,21.2-30.25C574.5,643.59,558.16,645.32,551.43,674.88Z" transform="translate(-41.83 -78.37)"/><path class="cls-3" d="M219,670s51.94-128.42,213.62-22.82c25.43,16.62,57,21.42,86,12.24a114.17,114.17,0,0,0,35.49-18.85,136.52,136.52,0,0,1,30.4-18c33.93-14.28,100.16-31.63,148,21.94,0,0-73,35-136,134,0,0-38,64-141,71,0,0,33,60,71,29,0,0,221-168,277-273,0,0,163-247.68-50.25-327a128,128,0,0,0-62.18-6.9c-52.54,7.31-148,42.7-204.57,196.94,0,0-148.08-163.83-273-79.76-32.71,22-55.3,56.08-64.28,94.48C137.71,532.53,137.76,609.31,219,670Z" transform="translate(-41.83 -78.37)"/><path class="cls-4" d="M217.5,647.5s-113-79-42-201c0,0,94-171,313,42,0,0,112.83-265.26,270.56-193.14l3.45,1.58c8.34,3.76,65.22,32.67,57.24,117.32-3,31.86-14.62,62.26-32.73,88.65-23.74,34.6-67.24,81.27-130.95,85.33A168.68,168.68,0,0,0,618.88,595C595.43,602,560,614.93,530.57,636.23c-1.27.92-2.52,1.87-3.77,2.83-6,4.62-50,35.12-110.89-13.23a146.42,146.42,0,0,0-27.82-17.6C352.39,591.17,278.6,570.4,217.5,647.5Z" transform="translate(-41.83 -78.37)"/><path class="cls-2" d="M385,887s-75-113-7-104c66.3,8.78,153.51,16.6,186.57-23.8,2.07-2.53,4.16-5.06,6.38-7.47C588.37,732.94,657.76,658,666.5,647.5c0,0,3-33-104,66,0,0-86,60-143,9,0,0,68-8,76-34,0,0-56.25.88-101.18-29.5a121,121,0,0,0-38.88-17.6c-25.4-6.19-60.49-6.61-78.94,29.1,0,0-30,63,14,109Z" transform="translate(-41.83 -78.37)"/><path class="cls-2" d="M844,702s196-197,153-395C957.27,124.08,804,100.76,780.92,98.27q-3-.33-6-.71C748.42,94.16,556.27,78.77,454,327c0,0-172.5-157.5-325.5-27.5,0,0-135,117-44,264,0,0-33.47-195.89,152.54-246.82,2.49-.68,5-1.43,7.43-2.18,16.88-5.11,104.3-24.54,227,74,0,0,56.65-127.13,181.18-176.64,70.38-28,150.5-18.82,211.05,26.67A195.83,195.83,0,0,1,914.81,295c21.11,35.41,29.83,76.83,25.85,117.85C935.48,466.28,916.05,575.13,844,702Z" transform="translate(-41.83 -78.37)"/></svg>