<svg width="306" height="92" viewBox="0 0 306 92" fill="none" xmlns="http://www.w3.org/2000/svg">
<path d="M0.3 24.79C2.01 26.95 4.71 28.3 8.1 28.3C11.37 28.3 14.37 26.32 15 23.92C15.36 22.48 15.3 21.13 14.73 19.96C13.77 18.04 10.95 16.39 8.55 15.28C6.87 14.47 5.01 13.96 5.01 12.37C5.01 10.57 6.69 9.79 8.22 9.79C9.93 9.79 11.55 11.08 11.91 11.44L14.34 8.95C13.17 7.63 10.95 6.7 8.07 6.7C5.7 6.7 3.69 7.63 2.52 9.04C1.23 10.63 0.93 13.3 2.04 14.98C3.09 16.54 5.49 17.89 7.83 18.94C9.45 19.66 11.73 20.62 11.73 22.18C11.73 24.07 9.78 25 7.95 25C5.85 25 3.87 23.62 2.91 22.36L0.3 24.79ZM24.3298 28.21C28.2898 28.21 31.6198 24.97 31.6198 20.89C31.6198 16.9 28.2898 13.63 24.3298 13.63C20.3398 13.63 17.0098 16.9 17.0098 20.89C17.0098 24.97 20.3398 28.21 24.3298 28.21ZM20.2198 20.92C20.2198 18.64 22.0498 16.81 24.3298 16.81C26.6098 16.81 28.4098 18.64 28.4098 20.92C28.4098 23.2 26.6098 25 24.3298 25C22.0498 25 20.2198 23.2 20.2198 20.92ZM40.473 16.81C41.643 16.81 42.693 17.26 43.413 18.07L45.843 16C44.523 14.56 42.633 13.63 40.473 13.63C36.453 13.63 33.183 16.9 33.183 20.89C33.183 24.97 36.453 28.21 40.473 28.21C42.723 28.21 44.643 27.22 45.993 25.66L43.503 23.68C42.753 24.49 41.703 25 40.473 25C38.193 25 36.363 23.17 36.363 20.89C36.363 18.67 38.193 16.81 40.473 16.81ZM48.3548 13.87V28H51.7748V13.87H48.3548ZM48.1148 9.22C48.1148 10.39 48.9248 11.17 50.0948 11.17C51.2048 11.17 52.0448 10.39 52.0448 9.22C52.0448 8.05 51.2048 7.27 50.0948 7.27C48.9248 7.27 48.1148 8.05 48.1148 9.22ZM62.0412 13.63C58.0212 13.63 54.7512 16.9 54.7512 20.89C54.7512 24.97 58.0212 28.21 62.0412 28.21C64.2312 28.21 65.0712 26.89 65.6412 26.47V28H69.0612L69.0312 13.87H65.6112V15.28C65.1012 14.86 64.3812 13.63 62.0412 13.63ZM65.5512 22.87C64.8612 24.1 63.5712 24.91 62.0412 24.91C59.7912 24.91 58.0212 23.14 58.0212 20.89C58.0212 18.7 59.7912 16.9 62.0412 16.9C63.5712 16.9 64.8312 17.71 65.5212 18.94L65.5512 22.87ZM73.4986 28H76.9186L76.9486 7H73.5286L73.4986 28Z" fill="#132B47"/>
<path d="M104.324 22.78C102.794 24.01 100.904 24.85 98.7138 24.85C94.5138 24.85 91.1838 21.52 91.1838 17.44C91.1838 13.33 94.5138 10.06 98.7138 10.06C100.874 10.06 102.764 10.81 104.234 12.1L106.424 9.85C104.474 7.9 101.804 6.7 98.7138 6.7C92.6538 6.7 87.8238 11.5 87.8238 17.44C87.8238 23.41 92.6538 28.21 98.7138 28.21C101.624 28.21 104.234 27.1 106.184 25.3L106.664 24.85L104.324 22.78ZM116.088 28.21C120.048 28.21 123.378 24.97 123.378 20.89C123.378 16.9 120.048 13.63 116.088 13.63C112.098 13.63 108.768 16.9 108.768 20.89C108.768 24.97 112.098 28.21 116.088 28.21ZM111.978 20.92C111.978 18.64 113.808 16.81 116.088 16.81C118.368 16.81 120.168 18.64 120.168 20.92C120.168 23.2 118.368 25 116.088 25C113.808 25 111.978 23.2 111.978 20.92ZM129.441 13.9H126.141L126.111 28H129.561L129.591 18.91C130.281 17.68 131.601 16.81 133.131 16.81C135.861 16.81 136.341 19.27 136.341 21.49V28H139.611V20.95C139.611 18.67 139.041 16.78 137.751 15.55C136.461 14.26 135.201 13.63 133.131 13.63C131.301 13.63 130.461 14.35 129.591 15.07L129.441 13.9ZM146.609 13.9H143.309L143.279 28H146.729L146.759 18.91C147.449 17.68 148.769 16.81 150.299 16.81C153.029 16.81 153.509 19.27 153.509 21.49V28H156.779V20.95C156.779 18.67 156.209 16.78 154.919 15.55C153.629 14.26 152.369 13.63 150.299 13.63C148.469 13.63 147.629 14.35 146.759 15.07L146.609 13.9ZM166.537 13.63C162.517 13.63 159.247 16.9 159.247 20.89C159.247 24.97 162.517 28.21 166.537 28.21C168.757 28.21 171.247 26.95 172.537 25.42L170.077 23.41C169.327 24.25 167.977 25 166.537 25C164.497 25 162.817 23.56 162.487 21.55L173.437 21.58C173.437 16.81 170.647 13.63 166.537 13.63ZM162.607 19.09C163.117 17.8 164.527 16.63 166.297 16.63C168.217 16.63 169.807 17.8 170.137 19.09H162.607ZM182.329 16.81C183.499 16.81 184.549 17.26 185.269 18.07L187.699 16C186.379 14.56 184.489 13.63 182.329 13.63C178.309 13.63 175.039 16.9 175.039 20.89C175.039 24.97 178.309 28.21 182.329 28.21C184.579 28.21 186.499 27.22 187.849 25.66L185.359 23.68C184.609 24.49 183.559 25 182.329 25C180.049 25 178.219 23.17 178.219 20.89C178.219 18.67 180.049 16.81 182.329 16.81ZM191.59 13.27H188.62V16.33H191.59V21.19C191.59 25.84 192.82 28.24 197.74 28.24C198.49 28.24 199.12 28.12 199.81 27.97L199.09 24.97C198.88 25.06 198.19 25.21 197.38 25.21C196.18 25.21 195.76 24.82 195.37 24.13C194.98 23.44 195.01 21.97 195.01 20.65V16.33H199.48V13.27H195.01V8.41H191.59V13.27ZM203.042 13.87V28H206.462V13.87H203.042ZM202.802 9.22C202.802 10.39 203.612 11.17 204.782 11.17C205.892 11.17 206.732 10.39 206.732 9.22C206.732 8.05 205.892 7.27 204.782 7.27C203.612 7.27 202.802 8.05 202.802 9.22ZM216.459 28.21C220.419 28.21 223.749 24.97 223.749 20.89C223.749 16.9 220.419 13.63 216.459 13.63C212.469 13.63 209.139 16.9 209.139 20.89C209.139 24.97 212.469 28.21 216.459 28.21ZM212.349 20.92C212.349 18.64 214.179 16.81 216.459 16.81C218.739 16.81 220.539 18.64 220.539 20.92C220.539 23.2 218.739 25 216.459 25C214.179 25 212.349 23.2 212.349 20.92ZM229.812 13.9H226.512L226.482 28H229.932L229.962 18.91C230.652 17.68 231.972 16.81 233.502 16.81C236.232 16.81 236.712 19.27 236.712 21.49V28H239.982V20.95C239.982 18.67 239.412 16.78 238.122 15.55C236.832 14.26 235.572 13.63 233.502 13.63C231.672 13.63 230.832 14.35 229.962 15.07L229.812 13.9Z" fill="#F85F48"/>
<path d="M153 58C143.611 58 136 65.611 136 75C136 84.389 143.611 92 153 92C162.389 92 170 84.389 170 75C170 65.611 162.389 58 153 58ZM148.839 82.0461H145.396V70.9678H148.839V82.0461ZM147.096 69.6078C146.009 69.6078 145.306 68.8375 145.306 67.8848C145.306 66.9126 146.03 66.1653 147.14 66.1653C148.251 66.1653 148.931 66.9126 148.952 67.8848C148.952 68.8375 148.251 69.6078 147.096 69.6078ZM161.411 82.0461H157.969V75.9067C157.969 74.4776 157.47 73.5072 156.225 73.5072C155.274 73.5072 154.709 74.1642 154.459 74.7964C154.367 75.0212 154.344 75.34 154.344 75.657V82.0444H150.9V74.5006C150.9 73.1176 150.856 71.9613 150.809 70.966H153.8L153.958 72.5049H154.027C154.48 71.7824 155.591 70.7164 157.448 70.7164C159.713 70.7164 161.411 72.234 161.411 75.4958V82.0461Z" fill="#132B47"/>
<path d="M17 58C7.61104 58 0 65.611 0 75C0 84.389 7.61104 92 17 92C26.389 92 34 84.389 34 75C34 65.611 26.389 58 17 58ZM21.0269 69.7477H18.4716C18.1688 69.7477 17.8323 70.1461 17.8323 70.6756V72.5208H21.0286L20.5452 75.1523H17.8323V83.052H14.8166V75.1523H12.0806V72.5208H14.8166V70.9731C14.8166 68.7525 16.3572 66.948 18.4716 66.948H21.0269V69.7477Z" fill="#132B47"/>
<path d="M233.252 68.6686C233.031 68.6243 232.865 68.6022 232.754 68.6022C231.935 68.6022 231.227 68.8791 230.629 69.433C229.279 68.8348 228.017 68.3473 226.844 67.9707C224.918 67.3503 222.904 66.8407 220.801 66.4418C220.602 65.9101 220.303 65.4669 219.904 65.1124C220.458 62.4979 221.199 60.1271 222.129 58C224.918 58.1994 227.48 59.0081 229.815 60.4262C232.151 61.8442 234.038 63.7054 235.477 66.0098C234.658 66.8961 233.916 67.7823 233.252 68.6686ZM217.846 64.348C217.27 64.348 216.728 64.5031 216.219 64.8133C214.426 63.4839 212.622 62.3539 210.807 61.4233C213.551 59.3405 216.628 58.1994 220.037 58C219.174 59.9277 218.477 62.0437 217.945 64.348H217.846ZM206.324 66.4086C207.077 65.1456 208.029 63.9492 209.18 62.8192C210.685 63.5947 212.245 64.5474 213.861 65.6774C211.006 65.6109 208.493 65.8547 206.324 66.4086ZM214.658 67.738C214.702 68.4249 214.94 69.0287 215.372 69.5494C215.804 70.0701 216.34 70.419 216.982 70.5963C216.85 72.1473 216.783 73.6207 216.783 75.0166C216.783 75.9915 216.816 77.1105 216.883 78.3734C216.396 78.5285 215.964 78.7944 215.588 79.1711C214.393 78.7058 213.242 78.174 212.135 77.5758C212.378 77.0883 212.5 76.5898 212.5 76.0802C212.5 75.1939 212.19 74.4405 211.57 73.8201C210.951 73.1997 210.198 72.8895 209.312 72.8895C208.339 72.8895 207.531 73.2662 206.889 74.0196C205.959 73.1776 205.129 72.3024 204.398 71.3939C204.598 70.4412 204.896 69.4995 205.295 68.5689C207.995 67.8156 211.117 67.5386 214.658 67.738ZM206.158 76.346C206.225 77.1659 206.562 77.8583 207.171 78.4233C207.78 78.9883 208.493 79.2708 209.312 79.2708C209.556 79.2708 209.822 79.2265 210.109 79.1378C211.526 79.9576 213.042 80.6667 214.658 81.2649V81.3978C214.658 82.262 214.951 82.9987 215.538 83.608C216.125 84.2173 216.85 84.5441 217.713 84.5885C218.266 87.2916 219.041 89.7621 220.037 92C217.824 91.8671 215.732 91.3298 213.762 90.3881C211.792 89.4464 210.093 88.2222 208.665 86.7155C207.237 85.2089 206.103 83.4363 205.262 81.3978C204.421 79.3594 204 77.2323 204 75.0166C204 74.9945 204.011 74.6953 204.033 74.1193C204.653 74.8948 205.361 75.637 206.158 76.346ZM220.635 82.8935C222.229 83.1815 223.833 83.3698 225.449 83.4585C225.604 83.9016 225.848 84.3115 226.18 84.6882C225.671 87.0147 225.361 89.2747 225.25 91.4682C224.121 91.7563 223.081 91.9335 222.129 92C221.089 89.6292 220.281 86.9482 219.705 83.957C220.104 83.6911 220.413 83.3366 220.635 82.8935ZM230.928 84.4888C231.215 84.1342 231.415 83.7576 231.525 83.3587C233.141 83.2258 234.702 83.0153 236.207 82.7273C235.145 84.81 233.684 86.6158 231.824 88.1447C231.625 86.9925 231.326 85.7739 230.928 84.4888ZM225.516 81.3314C223.966 81.2428 222.439 81.0433 220.934 80.7331C220.69 79.6253 220.059 78.8609 219.041 78.4399C218.952 77.1326 218.908 75.9915 218.908 75.0166C218.908 73.5543 218.975 72.0365 219.107 70.4633C219.152 70.4633 219.207 70.4412 219.273 70.3969C219.34 70.3526 219.384 70.3304 219.406 70.3304C220.27 71.1724 221.022 71.9479 221.664 72.6569C223.59 74.784 225.228 77.1991 226.578 79.9022C226.091 80.2789 225.737 80.7553 225.516 81.3314ZM228.471 85.652C228.515 85.652 228.637 85.6409 228.836 85.6188C229.212 86.9703 229.489 88.3109 229.666 89.6403C229.024 90.0169 228.249 90.3936 227.342 90.7703C227.497 89.042 227.762 87.3249 228.139 85.6188C228.316 85.6409 228.426 85.652 228.471 85.652ZM228.305 77.7087C228.283 77.753 228.255 77.8195 228.222 77.9081C228.188 77.9967 228.161 78.0632 228.139 78.1075C226.744 75.5816 225.106 73.2884 223.225 71.2278C222.538 70.4523 221.719 69.6103 220.768 68.7019C220.79 68.7019 220.806 68.6852 220.817 68.652L220.834 68.6022C222.693 68.9788 224.475 69.4441 226.18 69.998C227.22 70.3304 228.36 70.7735 229.6 71.3275C229.555 71.549 229.533 71.7152 229.533 71.826C229.533 72.4907 229.732 73.1 230.131 73.654C229.4 75.0499 228.792 76.4014 228.305 77.7087ZM229.865 79.6364C230.131 78.8609 230.264 78.462 230.264 78.4399C230.706 77.332 231.26 76.1466 231.924 74.8837C232.212 74.9723 232.488 75.0166 232.754 75.0166C233.507 75.0166 234.182 74.7618 234.779 74.2522C235.864 75.0055 236.926 75.8475 237.967 76.7781C237.834 78.0411 237.568 79.2597 237.17 80.434C235.355 80.8107 233.44 81.0766 231.426 81.2317C231.138 80.5226 230.618 79.9909 229.865 79.6364ZM235.941 71.7928C235.941 71.0616 235.698 70.3969 235.211 69.7986C235.676 69.2004 236.141 68.6575 236.605 68.1701C237.402 69.987 237.867 71.8592 238 73.7869C237.27 73.233 236.561 72.7344 235.875 72.2913C235.919 72.0919 235.941 71.9257 235.941 71.7928Z" fill="#132B47"/>
<path d="M84.9954 69.3309C81.8739 69.3309 79.3265 71.8784 79.3265 75C79.3265 78.1216 81.8739 80.6691 84.9954 80.6691C88.117 80.6691 90.6644 78.1216 90.6644 75C90.6644 71.8784 88.117 69.3309 84.9954 69.3309ZM101.998 75C101.998 72.6524 102.019 70.3261 101.888 67.9828C101.756 65.2609 101.135 62.8453 99.1445 60.8549C97.1499 58.8603 94.7386 58.2437 92.0168 58.1118C89.6693 57.98 87.343 58.0013 84.9997 58.0013C82.6521 58.0013 80.3259 57.98 77.9826 58.1118C75.2608 58.2437 72.8452 58.8646 70.8549 60.8549C68.8603 62.8495 68.2437 65.2609 68.1118 67.9828C67.98 70.3303 68.0013 72.6567 68.0013 75C68.0013 77.3433 67.98 79.6739 68.1118 82.0172C68.2437 84.7391 68.8646 87.1547 70.8549 89.1451C72.8495 91.1397 75.2608 91.7563 77.9826 91.8882C80.3301 92.02 82.6564 91.9987 84.9997 91.9987C87.3472 91.9987 89.6735 92.02 92.0168 91.8882C94.7386 91.7563 97.1542 91.1354 99.1445 89.1451C101.139 87.1505 101.756 84.7391 101.888 82.0172C102.024 79.6739 101.998 77.3476 101.998 75ZM84.9954 83.7226C80.1685 83.7226 76.273 79.827 76.273 75C76.273 70.173 80.1685 66.2774 84.9954 66.2774C89.8224 66.2774 93.7179 70.173 93.7179 75C93.7179 79.827 89.8224 83.7226 84.9954 83.7226ZM94.0751 67.9572C92.9482 67.9572 92.0381 67.0471 92.0381 65.9201C92.0381 64.7931 92.9482 63.883 94.0751 63.883C95.2021 63.883 96.1122 64.7931 96.1122 65.9201C96.1126 66.1877 96.0601 66.4528 95.9579 66.7001C95.8556 66.9474 95.7056 67.1721 95.5163 67.3613C95.3271 67.5506 95.1024 67.7006 94.8551 67.8029C94.6078 67.9051 94.3428 67.9576 94.0751 67.9572Z" fill="#132B47"/>
<path d="M301.75 58H276.25C275.123 58.0015 274.043 58.5719 273.246 59.586C272.449 60.6 272.001 61.975 272 63.4091V86.5909C272.001 88.025 272.449 89.4 273.246 90.414C274.043 91.4281 275.123 91.9985 276.25 92H301.75C302.877 91.9985 303.957 91.4281 304.754 90.414C305.551 89.4 305.999 88.025 306 86.5909V63.4091C305.999 61.975 305.551 60.6 304.754 59.586C303.957 58.5719 302.877 58.0015 301.75 58ZM300.674 66.9472L289.745 77.7654C289.532 77.9762 289.27 78.0907 289 78.0907C288.73 78.0907 288.468 77.9762 288.255 77.7654L277.326 66.9472C277.198 66.8238 277.09 66.6691 277.009 66.4922C276.928 66.3153 276.875 66.1197 276.854 65.9167C276.833 65.7136 276.844 65.5073 276.886 65.3097C276.928 65.112 277.001 64.927 277.099 64.7653C277.198 64.6036 277.321 64.4686 277.461 64.3679C277.601 64.2673 277.756 64.2031 277.916 64.1791C278.075 64.1551 278.237 64.1718 278.392 64.2281C278.547 64.2845 278.691 64.3794 278.817 64.5073L289 74.5876L299.183 64.5073C299.438 64.2626 299.758 64.1552 300.074 64.2085C300.391 64.2618 300.678 64.4714 300.874 64.792C301.07 65.1126 301.158 65.5185 301.121 65.9218C301.084 66.3251 300.923 66.6935 300.674 66.9472Z" fill="#132B47"/>
</svg>
